<?xml version="1.0" standalone="no"?>
<!DOCTYPE svg PUBLIC "-//W3C//DTD SVG 20010904//EN"
 "http://www.w3.org/TR/2001/REC-SVG-20010904/DTD/svg10.dtd">
<svg version="1.0" xmlns="http://www.w3.org/2000/svg"
 width="58.000000pt" height="49.000000pt" viewBox="0 0 58.000000 49.000000"
 preserveAspectRatio="xMidYMid meet">

<g transform="translate(0.000000,49.000000) scale(0.100000,-0.100000)"
fill="#000000" stroke="none">
<path d="M128 325 c2 -14 10 -25 17 -25 7 0 16 -6 18 -12 3 -7 6 -4 7 7 2 17
3 16 10 -5 8 -24 8 -24 9 6 1 17 -6 37 -14 44 -12 10 -15 9 -15 -6 -1 -18 -1
-18 -14 -1 -18 24 -24 21 -18 -8z"/>
<path d="M260 319 c0 -26 3 -30 10 -19 8 12 10 11 10 -7 0 -30 16 -38 24 -10
3 13 9 18 13 12 5 -5 26 -10 49 -11 31 0 40 3 41 17 1 10 -6 24 -15 31 -15 12
-16 11 -3 -5 19 -24 9 -30 -22 -16 -22 10 -31 9 -52 -5 -24 -16 -25 -16 -25 3
0 10 -7 24 -15 31 -13 11 -15 8 -15 -21z"/>
<path d="M460 336 c0 -2 7 -7 16 -10 8 -3 12 -2 9 4 -6 10 -25 14 -25 6z"/>
<path d="M54 301 c10 -16 46 -20 46 -5 0 8 -10 14 -26 14 -14 0 -23 -4 -20 -9z"/>
<path d="M427 289 c-10 -36 -9 -39 13 -39 23 0 26 18 7 45 -13 17 -14 17 -20
-6z"/>
<path d="M258 232 c-4 -12 -2 -20 3 -16 5 3 9 -1 9 -8 0 -9 -18 -14 -54 -16
-46 -2 -57 0 -69 18 -9 14 -17 17 -22 11 -3 -6 -1 -11 4 -11 6 0 11 -3 11 -8
0 -4 -23 -7 -50 -7 -50 0 -51 0 -29 -18 26 -21 47 -22 69 -2 15 14 20 14 46 0
38 -20 57 -19 85 4 22 18 26 18 41 4 9 -8 37 -18 62 -20 37 -5 46 -2 55 16 14
26 38 26 71 1 26 -20 60 -27 60 -11 0 11 -30 25 -48 22 -8 -1 -19 4 -25 12 -7
8 -34 17 -61 20 -35 3 -45 2 -33 -5 28 -15 20 -24 -25 -25 -48 -2 -76 10 -87
39 l-8 22 -5 -22z"/>
<path d="M300 236 c0 -2 7 -7 16 -10 8 -3 12 -2 9 4 -6 10 -25 14 -25 6z"/>
</g>
</svg>
